<?xml version="1.0" encoding="utf-8"?>
<!-- Generator: Adobe Illustrator 19.2.1, SVG Export Plug-In . SVG Version: 6.00 Build 0)  -->
<svg version="1.1" id="Layer_1" xmlns="http://www.w3.org/2000/svg" xmlns:xlink="http://www.w3.org/1999/xlink" x="0px" y="0px"
	 viewBox="0 0 110 113" style="enable-background:new 0 0 110 113;" xml:space="preserve">
<style type="text/css">
	.st0{fill:#9FCDDC;}
	.st1{fill:#FEFEFE;}
	.st2{fill:none;stroke:#221F20;stroke-width:2;}
	.st3{fill:none;stroke:#221F20;stroke-width:2;stroke-dasharray:3.964,3.964,3.964,3.964,3.964,3.964;}
	.st4{fill:none;stroke:#221F20;stroke-width:2;stroke-dasharray:2.927,2.927,2.927,2.927,2.927,2.927;}
	.st5{fill:none;stroke:#221F20;stroke-width:2;stroke-dasharray:2,2,2,2,2,2;}
	.st6{fill:none;}
	.st7{fill:#221F20;}
</style>
<title>Page 1</title>
<g>
	<path class="st0" d="M98.4,24.3c0,13.3-11.5,24-25.7,24c-14.2,0-25.7-10.7-25.7-24c0-13.3,11.5-24,25.7-24
		C86.9,0.3,98.4,11,98.4,24.3L98.4,24.3z"/>
	<path class="st1" d="M57.6,58L15.2,82.3l42.4,25L100,82.7"/>
	<path class="st2" d="M57.6,58L15.2,82.3l42.4,25L100,82.7L57.6,58z"/>
	<path class="st3" d="M19.3,29.9c0,4.7-4.1,8.5-9.1,8.5c-5,0-9.1-3.8-9.1-8.5c0-4.7,4.1-8.5,9.1-8.5C15.3,21.4,19.3,25.2,19.3,29.9
		L19.3,29.9z M108.6,24.3c0,4.7-4.1,8.5-9.1,8.5c-5,0-9.1-3.8-9.1-8.5c0-4.7,4.1-8.5,9.1-8.5C104.6,15.8,108.6,19.6,108.6,24.3
		L108.6,24.3z"/>
	<path class="st4" d="M72.1,7.4c0,3.5-3,6.3-6.7,6.3c-3.7,0-6.7-2.8-6.7-6.3s3-6.3,6.7-6.3C69.1,1.1,72.1,3.9,72.1,7.4L72.1,7.4z"/>
	<path class="st5" d="M29.6,13.6h17"/>
	<path class="st1" d="M29.5,57.4l-14.3,8.2l42.4,25L100,65.9l-13.8-8"/>
	<path class="st2" d="M29.5,57.4l-14.3,8.2l42.4,25L100,65.9l-13.8-8"/>
	<path class="st5" d="M7.3,87.1l41.7,24.3"/>
	<path class="st1" d="M49.1,85.5l-5.2-15.3L70.1,74v-7.7l14.9,1.3v-5.3l4-2.8"/>
	<path class="st2" d="M49.1,85.5l-5.2-15.3L70.1,74v-7.7l14.9,1.3v-5.3l4-2.8"/>
	<path class="st1" d="M57.6,24.3L15.2,48.6l42.4,25L100,48.9"/>
	<path class="st2" d="M57.6,24.3L15.2,48.6l42.4,25L100,48.9L57.6,24.3z"/>
	<path class="st6" d="M0,112.3h109.8V0H0"/>
	<path class="st7" d="M80.9,38.8l-6.6-16.6l-6.6,16.6L80.9,38.8L80.9,38.8z M86.6,53.6l-4.2-10.7H66.1l-4.2,10.7h-5.1l15.3-38.5h5.4
		l15,38.5L86.6,53.6L86.6,53.6z"/>
</g>
</svg>
