<?xml version="1.0" encoding="utf-8"?>
<!-- Generator: Adobe Illustrator 19.2.1, SVG Export Plug-In . SVG Version: 6.00 Build 0)  -->
<svg version="1.1" id="Layer_1" xmlns="http://www.w3.org/2000/svg" xmlns:xlink="http://www.w3.org/1999/xlink" x="0px" y="0px"
	 viewBox="0 0 145 108" style="enable-background:new 0 0 145 108;" xml:space="preserve">
<style type="text/css">
	.st0{fill:#9FCDDC;}
	.st1{fill:none;stroke:#221F20;stroke-width:2;stroke-dasharray:3.887,3.887,3.887,3.887,3.887,3.887;}
	.st2{filter:url(#Adobe_OpacityMaskFilter);}
	.st3{fill:#FFFFFF;}
	.st4{mask:url(#b);fill:none;stroke:#221F20;stroke-width:2;}
	.st5{fill:none;stroke:#221F20;stroke-width:2;}
	.st6{fill:none;stroke:#221F20;stroke-width:2;stroke-linecap:round;stroke-linejoin:round;}
	.st7{fill:none;}
	.st8{fill:none;stroke:#221F20;stroke-width:2;stroke-dasharray:6,2,6,4,4,4;}
</style>
<title>Future Copy</title>
<g>
	<path class="st0" d="M137.9,38.7c0,21.4-17.3,38.7-38.6,38.7c-21.3,0-38.6-17.3-38.6-38.7C60.6,17.3,77.9,0,99.2,0
		C120.6,0,137.9,17.3,137.9,38.7L137.9,38.7z"/>
	<path class="st1" d="M24.1,92.5c0,3.2-2.6,5.8-5.8,5.8s-5.8-2.6-5.8-5.8c0-3.2,2.6-5.8,5.8-5.8S24.1,89.2,24.1,92.5L24.1,92.5z
		 M50.8,92.5c0,3.2-2.6,5.8-5.8,5.8s-5.8-2.6-5.8-5.8c0-3.2,2.6-5.8,5.8-5.8S50.8,89.2,50.8,92.5z M101.6,92.5
		c0,3.2-2.6,5.8-5.8,5.8s-5.8-2.6-5.8-5.8c0-3.2,2.6-5.8,5.8-5.8S101.6,89.2,101.6,92.5L101.6,92.5z M128.3,92.5
		c0,3.2-2.6,5.8-5.8,5.8s-5.8-2.6-5.8-5.8c0-3.2,2.6-5.8,5.8-5.8S128.3,89.2,128.3,92.5z"/>
	<g transform="translate(1.57 102.712)">
		<defs>
			<filter id="Adobe_OpacityMaskFilter" filterUnits="userSpaceOnUse" x="0.9" y="-0.7" width="142.4" height="6.5">
				<feColorMatrix  type="matrix" values="1 0 0 0 0  0 1 0 0 0  0 0 1 0 0  0 0 0 1 0"/>
			</filter>
		</defs>
		<mask maskUnits="userSpaceOnUse" x="0.9" y="-0.7" width="142.4" height="6.5" id="b">
			<g class="st2">
				<path id="a" class="st3" d="M143.3,4.7V0.3H0.9v4.5H143.3z"/>
			</g>
		</mask>
		<path class="st4" d="M0.9,0.3c4.4,0,4.4,4.5,8.9,4.5c4.4,0,4.4-4.5,8.9-4.5c4.4,0,4.4,4.5,8.9,4.5s4.5-4.5,8.9-4.5
			c4.5,0,4.5,4.5,8.9,4.5s4.4-4.5,8.9-4.5c4.4,0,4.4,4.5,8.9,4.5c4.4,0,4.4-4.5,8.9-4.5c4.4,0,4.4,4.5,8.9,4.5s4.5-4.5,8.9-4.5
			s4.4,4.5,8.9,4.5c4.5,0,4.5-4.5,8.9-4.5c4.4,0,4.4,4.5,8.9,4.5c4.5,0,4.5-4.5,8.9-4.5c4.5,0,4.5,4.5,8.9,4.5
			c4.5,0,4.5-4.5,8.9-4.5"/>
	</g>
	<path class="st5" d="M48.6,52.5h44.5 M128,52.5l14.1-5V34.6h-39.2 M13.5,52.5H9.1L2.5,38.7h14.1 M9.5,38.7V24.9h30v6.9"/>
	<path class="st6" d="M142.1,34.6l-43.3-9.7L88.4,38.7H58.6l-10-9.7V8.2L20.1,24.9"/>
	<path class="st5" d="M48.6,8.2h28.9l21.3,16.6"/>
	<path class="st5" d="M57.1,8.2l8.5,12.6L97,23.5"/>
	<path class="st7" d="M0,109h144.9V0H0"/>
	<path class="st5" d="M20.1,56.9h22.6v-8.5H20.1V56.9z M98.8,56.9h22.6v-8.5H98.8V56.9z M13.5,23.5V8.2h9.1v3.5h20.1 M22.9,65.1v17
		 M39.5,65.1v17"/>
	<path class="st8" d="M31.3,65.1v27.4"/>
	<path class="st5" d="M101.6,65.1v17 M118.2,65.1v17"/>
	<path class="st8" d="M110.1,65.1v25.8"/>
</g>
</svg>
