<?xml version="1.0" encoding="utf-8"?>
<!-- Generator: Adobe Illustrator 19.2.1, SVG Export Plug-In . SVG Version: 6.00 Build 0)  -->
<svg version="1.1" id="Layer_1" xmlns="http://www.w3.org/2000/svg" xmlns:xlink="http://www.w3.org/1999/xlink" x="0px" y="0px"
	 viewBox="0 0 125 99" style="enable-background:new 0 0 125 99;" xml:space="preserve">
<style type="text/css">
	.st0{fill:#9FCDDC;}
	.st1{fill:none;stroke:#221F20;stroke-width:2;}
	.st2{fill:#221F20;}
</style>
<title>snippets</title>
<g>
	<path class="st0" d="M59.5,62.2c0,16.3-13.2,29.5-29.6,29.5S0.4,78.5,0.4,62.2c0-16.3,13.2-29.5,29.6-29.5
		C46.3,32.7,59.5,45.9,59.5,62.2L59.5,62.2z"/>
	<path class="st1" d="M8.2,72.2h108.3V8.7H8.2L8.2,72.2z"/>
	<path class="st1" d="M1.4,81.3h122V1.9H1.4V81.3z M49.3,91.8h26.1V81.3H49.3V91.8z M40.7,97.4H84v-5.6H40.7L40.7,97.4z"/>
	<path class="st2" d="M63.8,5.2c0,0.8-0.6,1.4-1.4,1.4c-0.8,0-1.4-0.6-1.4-1.4s0.6-1.4,1.4-1.4C63.2,3.7,63.8,4.4,63.8,5.2 M63.8,77
		c0,0.8-0.6,1.4-1.4,1.4c-0.8,0-1.4-0.6-1.4-1.4c0-0.8,0.6-1.4,1.4-1.4C63.2,75.5,63.8,76.2,63.8,77 M88.6,41.5L75.8,54.2l-2.3-2.3
		L84,41.5L73.5,31l2.3-2.3 M35.5,41.5l12.8,12.8l2.3-2.3L40.1,41.5L50.6,31l-2.3-2.3"/>
	<path d="M56.4,58.6l14-33l-2.8-1.2l-14,33"/>
</g>
</svg>
