<?xml version="1.0" encoding="utf-8"?>
<!-- Generator: Adobe Illustrator 19.2.1, SVG Export Plug-In . SVG Version: 6.00 Build 0)  -->
<svg version="1.1" id="Layer_1" xmlns="http://www.w3.org/2000/svg" xmlns:xlink="http://www.w3.org/1999/xlink" x="0px" y="0px"
	 viewBox="0 0 93 110" style="enable-background:new 0 0 93 110;" xml:space="preserve">
<style type="text/css">
	.st0{fill:#9FCDDC;}
	.st1{fill:#FEFEFE;}
	.st2{fill:none;stroke:#221F20;stroke-width:2;}
	.st3{fill:none;stroke:#221F20;}
	.st4{fill:none;stroke:#221F20;stroke-width:2;stroke-dasharray:2.095,2.095,2.095,2.095;}
	.st5{fill:none;stroke:#221F20;stroke-width:2;stroke-dasharray:3.016,3.016,3.016,3.016,3.016,3.016;}
	.st6{fill:none;stroke:#221F20;stroke-width:2;stroke-dasharray:4.455,4.455,4.455,4.455,4.455,4.455;}
	.st7{fill:none;stroke:#221F20;stroke-width:2;stroke-dasharray:2,2,2,2,2,2;}
</style>
<title>themeable</title>
<g>
	<path class="st0" d="M45.8,34.3C45.8,46.8,35.6,57,23.2,57C10.7,57,0.6,46.8,0.6,34.3c0-12.5,10.1-22.6,22.6-22.6
		C35.6,11.8,45.8,21.9,45.8,34.3L45.8,34.3z"/>
	<path class="st1" d="M1,108.4h90.8V83.6H1"/>
	<path class="st2" d="M1,108.4h90.8V83.6H1V108.4z M46.8,108.4V83.6 M24.3,108.4V83.6"/>
	<path class="st1" d="M73.8,107.7L3.7,67.2l12.4-21.5l65.6,37.8"/>
	<path class="st2" d="M73.8,107.7L3.7,67.2l12.4-21.5l65.6,37.8 M55.1,68.2L42.7,89.7 M35.6,57L23.2,78.4"/>
	<path class="st1" d="M68.4,103L29,34.7l21.5-12.4l39.7,68.8"/>
	<path class="st2" d="M68.1,103L28.7,34.7l21.5-12.4l39.7,68.8 M72.7,61.3L51.2,73.7 M61.4,41.7L39.9,54.1"/>
	<path class="st3" d="M69.4,108.4V83.6"/>
	<path class="st1" d="M66.9,108.4h25V16.6h-25"/>
	<path class="st1" d="M67,87.5h24.8v-3H67"/>
	<path class="st2" d="M67,108.4h24.8V17.6H67V108.4z"/>
	<path class="st3" d="M67,40.8h24.8 M67,63.4h24.8"/>
	<path class="st2" d="M67,86h24.8"/>
	<path class="st3" d="M67.1,80.4h24.8"/>
	<path class="st2" d="M67.1,63.4h24.8"/>
	<path class="st3" d="M67.1,74.8h24.8 M67.1,69.1h24.8"/>
	<path class="st2" d="M67.1,40.8h24.8"/>
	<path class="st3" d="M73.3,17.6v23.2 M79.4,17.6v23.2 M85.6,17.6v23.2 M67.1,48.2l15.1,15.1 M67.1,56.2l7.2,7.2 M67.9,41l22.5,22.5
		 M75.9,41.1L91.8,57 M83.6,40.7l8.3,8.3 M82.6,85.8l-15.5,15.5 M74.5,85.9l-7.6,7.6 M90.4,86l-22.3,22.3 M91.8,92.5l-15.9,15.9
		 M91.8,100.5l-7.9,7.9"/>
	<path class="st2" d="M36.9,24.1h-2.1"/>
	<path class="st4" d="M32.6,24.1H25"/>
	<path class="st2" d="M23.9,24.1h-2.1"/>
	<path class="st5" d="M13.1,34.3c0,3.3-2.7,6-6,6s-6-2.7-6-6c0-3.3,2.7-6,6-6S13.1,31,13.1,34.3L13.1,34.3z M70.7,7.1
		c0,3.3-2.7,6-6,6c-3.3,0-6-2.7-6-6c0-3.3,2.7-6,6-6C68,1,70.7,3.8,70.7,7.1L70.7,7.1z"/>
	<path class="st6" d="M17.6,12.7c0,2.5-2,4.5-4.5,4.5c-2.5,0-4.5-2-4.5-4.5c0-2.5,2-4.5,4.5-4.5S17.6,10.2,17.6,12.7L17.6,12.7z"/>
	<path class="st7" d="M37,11.1h11.3"/>
</g>
</svg>
