<?xml version="1.0" encoding="utf-8"?>
<!-- Generator: Adobe Illustrator 21.1.0, SVG Export Plug-In . SVG Version: 6.00 Build 0)  -->
<svg version="1.1" id="Layer_2" xmlns="http://www.w3.org/2000/svg" xmlns:xlink="http://www.w3.org/1999/xlink" x="0px" y="0px"
	 viewBox="0 0 2612 1024" style="enable-background:new 0 0 2612 1024;" xml:space="preserve">
<style type="text/css">
	.st0{fill:#E63233;}
	.st1{fill:#FFFFFF;}
	.st2{fill:#263D5C;}
</style>
<g>
	<path class="st0" d="M411.6,891.5L411.6,891.5C205,891.5,35.9,722.4,35.9,515.8v0C35.9,309.1,205,140,411.6,140h0
		c206.7,0,375.8,169.1,375.8,375.8v0C787.4,722.4,618.3,891.5,411.6,891.5z"/>
	<g>
		<g>
			<path class="st1" d="M388,375.8c8.3,0,15-6.7,15-15c0-8.3-6.7-15-15-15c-8.3,0-15,6.7-15,15C373,369.1,379.7,375.8,388,375.8z
				 M387,502.7c-18.1,0-32.8-14.7-32.8-32.8c0-18.1,14.7-32.8,32.8-32.8v0c24,0,45.5-11.2,59.5-28.6l307.9-46.2
				c-0.6-1.3-1.2-2.7-1.8-4l-307-47.2c-3.1-5.3-8.3-9.8-15-13.3c-10.5-7.3-22.9-12.1-36.3-13.4L394,284h-4.1c-1-0.3-2-0.4-3-0.4
				C260.1,283.5,157,386.6,157,513.4c0,6,4.9,10.9,10.9,10.9c6,0,10.9-4.9,10.9-10.9c0-62.9,28.1-119.4,72.4-157.6
				c-17.9,26.3-28.4,58-28.4,92.2c0,90.4,73.5,164,163.9,164c18.1,0,32.8,14.7,32.8,32.8c0,9.9-4.5,19.2-12,25.3
				c-3.7-4.5-7.6-8.9-11.8-13.1c-31-31-72.1-48-115.9-48c-43.8,0-85,17.1-115.9,48c-16.7,16.8-33.7,49.4-49.5,88.2
				c5,6.5,10.3,12.9,15.8,19c15.9-40.9,32.9-75.4,49.2-91.7c5.9-5.9,12.1-11.1,18.8-15.8c16.4-10.7,35.5-16.4,55.6-16.4
				c27.3,0,52.9,10.6,72.2,29.9c39.8,39.8,39.8,104.6,0,144.5c0,0-2.2,1.9-2.4,4.4c-0.3,2.9,0.6,7.2,2.8,9.4c2.3,2.3,7.2,3,10.3,2.8
				c2.4-0.1,4.3-1.7,4.3-1.7c48.1-48.1,48.1-126.3,0-174.4c-8-8-17-14.8-26.6-20.2c24.8,6.1,47.6,18.9,66.1,37.5
				c55.4,55.4,55.4,145.6,0,201c-4.9,4.9-11.4,9.8-19.1,14.7c11.8,1.6,23.8,2.7,35.9,3.1l0.5-4.3c18-18.6,30.7-40.4,38.2-63.5
				c68.1-21.2,115.2-84.8,115.2-156.7C551.1,576.3,477.5,502.7,387,502.7z M621,360.2l-161.5,24.2c2.5-7.5,3.8-15.5,3.8-23.8
				c0-8.9-1.5-17.4-4.3-25.3L621,360.2z M441.9,798c5.8-37.5-1.5-76.6-21.7-110.1c13.2-10.2,21.3-26.1,21.3-43.2
				c0-30.1-24.5-54.6-54.6-54.7c-78.4,0-142.1-63.8-142.1-142.1c0-61.2,38.9-113.5,93.2-133.4c28.1-9.8,56-10.8,82.1,2.7
				c13,10,21.5,25.7,21.5,43.4c0,30.1-24.5,54.7-54.7,54.7v0c-30.1,0.1-54.5,24.6-54.5,54.7c0,30.1,24.5,54.7,54.7,54.7
				c78.4,0,142.2,63.8,142.2,142.2C529.2,724.6,494.1,776.2,441.9,798z"/>
		</g>
	</g>
</g>
<g>
	<g>
		<path class="st0" d="M1092.3,463.4c-51.8-17.6-104.2-40.2-103.6-91.5c0-46.9,44.7-75,97.6-75.5c31.4-0.6,65.6,8.3,95.9,25.4
			c8.3,5,16,9.4,23.7-0.5c8.3-10.5,0-16-6.1-19.8c-33.1-20.4-75-30.9-113-30.3c-65.6,1.1-125.7,33.6-125.7,100.9
			c0,70.6,63.4,97,131.2,120.2c58.4,19.8,111.4,39.1,109.2,95.4c-1.7,47.4-46.3,68.9-104.7,70.6c-49.1,1.1-75-8.8-115.8-28.7
			c-6.6-3.3-13.2-5-19.8,5.5c-6.1,9.9-2.2,13.2,5.5,18.2c29.8,19.3,76.1,33.1,127.9,32c73.3-1.1,133.4-30.3,135.6-98.7
			C1230.1,507.5,1160.7,486.5,1092.3,463.4z"/>
		<path class="st0" d="M1500.8,442.4c-38.6-21.5-71.1-31.4-109.7-31.4c-71.1,0-131.2,55.7-131.2,136.7
			c0,88.2,56.8,137.3,121.3,137.3c35.3,0,73.3-15.4,104.7-46.9v24.3c0,8.8,2.2,13.8,13.2,13.8c11,0,13.2-5,13.2-13.8V462.3
			C1512.4,452.9,1509.1,446.8,1500.8,442.4z M1485.9,607.3c-29.2,37.5-68.4,54.6-104.2,53.5c-50.2-1.7-94.3-40.8-94.3-112.5
			c0-69.5,48-113,103.6-113c27,0,57.9,6.1,94.8,24.3V607.3z"/>
		<path class="st0" d="M1797.4,442.4c-38.6-21.5-71.1-31.4-109.7-31.4c-71.1,0-131.2,55.7-131.2,136.7
			c0,88.2,56.8,137.3,121.3,137.3c35.3,0,73.3-15.4,104.7-46.9v24.3c0,8.8,2.2,13.8,13.2,13.8c11,0,13.2-5,13.2-13.8V462.3
			C1809,452.9,1805.7,446.8,1797.4,442.4z M1782.5,607.3c-29.2,37.5-68.4,54.6-104.2,53.5c-50.2-1.7-94.3-40.8-94.3-112.5
			c0-69.5,48-113,103.6-113c27,0,57.9,6.1,94.8,24.3V607.3z"/>
		<path class="st0" d="M2119.9,543.3c0-29.8-10.5-61.7-30.3-85.4l23.2-18.7c7.7-6.1,8.3-9.9,2.2-17.1c-6.1-7.2-11-7.2-17.6-1.7
			l-24.3,20.4c-25.4-22-55.7-29.8-86.6-29.8c-72.8,0-133.4,59.5-133.4,132.3c0,72.8,60.6,132.9,133.4,132.9
			c25.4,0,49.1-7.2,70.6-20.4c20.9,16,31.4,39.1,30.3,62.3c-1.7,37.5-33.6,73.9-95.4,73.9c-49.1,0-81.6-22.6-104.2-55.1
			c-5.5-8.3-8.8-11-18.2-6.6c-7.7,3.9-10.5,7.2-5,17.1c23.2,41.9,71.1,70,131.8,70c75,0,113.6-49.1,116.3-98.1
			c1.7-29.8-11-57.3-38.6-76.1C2103.9,617.2,2119.9,580.8,2119.9,543.3z M1986.5,651.9c-56.8,0-105.8-48-105.8-108.6
			c0-60.6,49.1-108.1,105.8-108.1c57.3,0,105.8,47.4,105.8,108.1C2092.3,603.9,2043.8,651.9,1986.5,651.9z"/>
		<circle class="st0" cx="2190.5" cy="291.4" r="20.9"/>
		<path class="st0" d="M2191,419.8c-11.6,0-13.2,5-13.2,13.8v228.8c0,8.8,1.7,13.8,13.2,13.8c11.6,0,13.2-5,13.2-13.8V433.6
			C2204.2,424.8,2202.6,419.8,2191,419.8z"/>
		<path class="st0" d="M2390.6,411c-78.3,0-129.6,61.2-129.6,139.5c0.6,135.1,137.3,159.9,218.9,111.9c9.4-5.5,13.2-9.4,6.6-18.7
			c-6.1-8.3-12.7-5.5-22.6-0.6c-19.8,9.9-43,15.4-66.2,15.4c-56.2,0-108.6-31.4-109.2-108.1h161
			C2541.1,550.5,2510.7,409.3,2390.6,411z M2290.2,527.3c7.7-53.5,44.7-91.5,100.3-92.1c84.9-1.1,109.7,92.1,58.4,92.1H2290.2z"/>
		<path class="st0" d="M2568.4,435.9c-15.7,0-28.1,12.8-28.1,28.4c0,15.7,12.4,28.6,28.1,28.6c15.6,0,28.1-12.9,28.1-28.6
			C2596.5,448.8,2584.1,435.9,2568.4,435.9z M2568.4,489.5c-13.4,0-24.2-11.2-24.2-25.1c0-13.9,10.8-25,24.2-25
			c13.4,0,24.1,11.1,24.1,25C2592.6,478.3,2581.8,489.5,2568.4,489.5z"/>
		<path class="st0" d="M2577.3,473.4c-7.8,5.7-19.4,2.9-19.4-9.1c-0.2-11.4,10.3-14.7,18.6-9.1c0.5,0.3,1,0.6,1.7-0.2
			c0.9-1.1,0.5-1.5-0.1-2c-9.4-7.3-23.9-2.7-23.8,11.4c0.2,14,15.8,19.2,24.6,11.3c0.7-0.6,0.9-1.1,0.2-1.9
			C2578.5,472.9,2577.9,473,2577.3,473.4z"/>
	</g>
	<g>
		<path class="st2" d="M986.2,748.5c24,0.2,38.6,16.4,38.4,38.3c-0.2,22-15,38.1-39.1,37.9l-20.3-0.2c-3.4,0-5-1.5-4.9-4.9l0.6-66.5
			c0-3.4,1.7-4.9,5-4.8L986.2,748.5z M985.7,814.8c16.6,0.1,27-10.6,27.1-28.1c0.1-17.3-10-28.2-26.7-28.3l-14-0.1l-0.5,56.3
			L985.7,814.8z"/>
		<path class="st2" d="M1087.9,816.2c3.6,0,5,0.4,4.9,4.8c0,4.3-1.4,4.6-5,4.6l-41.2-0.3c-3.4,0-5.1-1.7-5-5.1l0.6-66.1
			c0-3.4,1.7-5.1,5.1-5l39.2,0.3c3.5,0,4.9,0.4,4.8,4.7c0,4.4-1.4,4.8-4.9,4.7l-32.9-0.3l-0.2,24.3l27.5,0.2c3.5,0,5,0.5,4.9,4.8
			c0,4.3-1.5,4.6-5,4.6l-27.5-0.2l-0.2,23.7L1087.9,816.2z"/>
		<path class="st2" d="M1146.8,762c-5.3-2.7-10.3-4.2-15.6-4.3c-8.5,0-15.2,4.2-15.2,10.8c-0.2,7.6,9.3,11,19,14.6
			c12.1,4.4,23.8,9.5,23.6,24c-0.3,14.5-13.2,20.4-27.8,20.5c-9.3,0.1-18-2.3-24.1-5.9c-3.1-1.7-3.8-2.9-1.9-6.3
			c2.4-4.2,4.1-3.8,6.8-2.6c6.5,3,11.2,4.8,19.3,4.6c9.2-0.1,15.8-3.3,16-9.9c0.4-8.7-10.5-12.1-21.1-16
			c-10.3-3.9-21.6-9.2-21.5-22.7c0.1-14.3,12.9-20.8,26.4-20.8c7.5,0,15.1,2,21.2,5.7c3,1.6,4.2,3.1,2,6.5
			C1151.4,764.2,1149.5,763.3,1146.8,762z"/>
		<path class="st2" d="M1185.3,755.7l-0.5,65.2c0,4.1-0.4,5.6-5.7,5.6c-5.4,0-5.7-1.5-5.7-5.7l0.5-65.2c0-4.1,0.4-5.6,5.8-5.6
			C1185,750,1185.4,751.5,1185.3,755.7z"/>
		<path class="st2" d="M1239.9,749c8.3,0,16.5,2.4,23.2,7c2.8,1.8,3.7,3.6,1.2,6.8c-2.7,3.4-4.3,2.6-7.1,1.2
			c-5.2-3.3-11.3-5.1-17.3-5c-13.6,0.1-26.3,9.2-26.5,29.3c-0.2,19.5,12.6,30,26,30.4c7.1,0.2,14.4-2.3,20.2-8l0.1-15.1l-15.1-0.1
			c-3.6,0-4.7-0.6-4.6-4.8c0-4.1,1.1-4.4,4.7-4.4l21.1,0.2c4.1,0.1,4.8,1.5,4.7,5.3l-0.2,18.4c0,2.4-0.6,4.6-2.6,6.7
			c-6,7.2-16.1,11.7-28.7,11.7c-22.7-0.2-37.7-18.2-37.5-40.4C1201.8,761.6,1221.1,749.2,1239.9,749z"/>
		<path class="st2" d="M1350.7,757l-0.5,62.4c0,4.4,0.1,6.2-3.9,7.7c-4.6,1.7-6.7,0.6-9.3-3.1l-37.2-55.1l-0.4,53
			c0,4.1-0.5,5.6-5.9,5.6c-5.3,0-5.5-1.5-5.5-5.7l0.5-62.4c0-4.4,0.1-6.4,3.9-7.7c4.7-1.7,6.7-0.6,9.3,3.1l37.2,55.1l0.4-53
			c0-4.2,0.5-5.6,5.9-5.6C1350.3,751.4,1350.7,752.8,1350.7,757z"/>
		<path class="st2" d="M1437.7,764.4c-5.3-2.7-10.3-4.2-15.6-4.3c-8.5,0-15.2,4.2-15.2,10.8c-0.2,7.6,9.3,11,19.1,14.6
			c12.1,4.4,23.8,9.5,23.6,24c-0.3,14.5-13.2,20.4-27.8,20.5c-9.3,0.1-18-2.3-24.1-5.9c-3.1-1.7-3.8-2.9-1.9-6.3
			c2.4-4.2,4.1-3.8,6.8-2.6c6.5,3,11.2,4.8,19.3,4.6c9.2-0.1,15.8-3.3,16-9.9c0.4-8.7-10.5-12.1-21.1-16
			c-10.3-3.9-21.6-9.2-21.5-22.7c0.1-14.3,12.9-20.8,26.4-20.8c7.5,0,15.1,2,21.2,5.7c3,1.6,4.2,3.1,2,6.5
			C1442.2,766.6,1440.3,765.7,1437.7,764.4z"/>
		<path class="st2" d="M1469.4,756.1l18.5,33.3l18.9-33c2-3.8,3.9-4.9,8-2.8c4.4,2.3,3.9,4.4,2.2,7.2l-23.3,38.7l-0.2,23.9
			c0,4.1-0.4,5.6-5.8,5.6c-5.3,0-5.6-1.5-5.6-5.7l0.2-23.6l-23.1-39.4c-1.6-2.8-2.1-4.9,2.5-7.3
			C1465.6,751.1,1467.5,752.4,1469.4,756.1z"/>
		<path class="st2" d="M1569.7,765.5c-5.3-2.7-10.3-4.2-15.6-4.3c-8.5,0-15.2,4.2-15.2,10.8c-0.2,7.6,9.3,11,19.1,14.6
			c12.1,4.4,23.8,9.5,23.6,24c-0.3,14.5-13.2,20.4-27.8,20.5c-9.3,0.1-18-2.3-24.1-5.9c-3.1-1.7-3.8-2.9-1.9-6.3
			c2.4-4.2,4.1-3.8,6.8-2.6c6.5,3,11.2,4.8,19.3,4.6c9.2-0.1,15.8-3.3,16-9.9c0.4-8.7-10.5-12.1-21.1-16
			c-10.3-3.9-21.6-9.2-21.5-22.7c0.1-14.3,12.9-20.8,26.4-20.8c7.5,0,15.1,2,21.2,5.7c3,1.6,4.2,3.1,2,6.5
			C1574.3,767.7,1572.4,766.8,1569.7,765.5z"/>
		<path class="st2" d="M1646.1,754c3.5,0,4.6,0.4,4.5,4.7c0,4.4-1.1,4.8-4.6,4.7l-20.3-0.2l-0.5,61.3c0,4.1-0.3,5.6-5.7,5.6
			c-5.4,0-5.7-1.5-5.7-5.7l0.5-61.3l-20.2-0.2c-3.5,0-4.6-0.4-4.5-4.8c0-4.3,1.1-4.7,4.6-4.6L1646.1,754z"/>
		<path class="st2" d="M1710.9,821.4c3.6,0,5,0.4,4.9,4.8c0,4.3-1.4,4.6-5,4.6l-41.2-0.3c-3.4,0-5.1-1.7-5-5.1l0.6-66.1
			c0-3.4,1.7-5.1,5.1-5l39.2,0.3c3.5,0,4.9,0.4,4.8,4.7c0,4.4-1.4,4.8-4.9,4.7l-32.9-0.3l-0.2,24.3l27.5,0.2c3.5,0,5,0.5,4.9,4.8
			c0,4.3-1.5,4.6-5,4.6l-27.5-0.2l-0.2,23.7L1710.9,821.4z"/>
		<path class="st2" d="M1808,764l-0.5,62.1c0,4.1-0.6,5.6-5.7,5.6c-5.3,0-5.7-1.5-5.7-5.7l0.4-53.2l-22.5,26
			c-2.6,2.9-5.9,2.9-8.4-0.1l-21.9-26.3l-0.4,53.2c0,4.1-0.6,5.6-5.9,5.6c-5.1,0-5.5-1.5-5.5-5.7l0.5-62.1c0-4.9,0.3-6.8,4-8.1
			c4-1.6,6-0.6,8.8,2.9l24.7,30.8l25.1-30.4c2.8-3.5,4.8-4.3,8.9-2.8C1808,757.3,1808,759.2,1808,764z"/>
	</g>
</g>
</svg>
